# Blender v2.79 (sub 0) OBJ File: 'untitled.blend'
# www.blender.org
mtllib dia.mtl
o Cube
v 0.000000 -1.414214 0.000000
v 0.000000 1.414210 0.000000
v 1.000000 0.000000 -0.999999
v 0.999999 0.000000 1.000001
v -1.000000 0.000000 1.000000
v -1.000000 0.000000 -1.000000
vt 0.500000 0.691403
vt 0.250033 0.547085
vt 0.500000 0.402766
vt 0.250033 0.258448
vt 0.000066 0.402767
vt 0.999934 0.402767
vt 0.999934 0.691404
vt 0.749967 0.547085
vt 0.000066 0.691404
vt 0.749967 0.258448
vn 0.0000 0.5774 -0.8165
vn 0.8165 -0.5774 0.0000
vn -0.0000 0.5774 0.8165
vn -0.8165 0.5774 -0.0000
vn 0.8165 0.5774 0.0000
vn -0.0000 -0.5774 0.8165
vn -0.8165 -0.5774 -0.0000
vn 0.0000 -0.5774 -0.8165
usemtl Material
s off
f 2/1/1 3/2/1 6/3/1
f 1/4/2 3/2/2 4/5/2
f 4/6/3 2/7/3 5/8/3
f 5/8/4 2/1/4 6/3/4
f 2/9/5 4/5/5 3/2/5
f 4/6/6 5/8/6 1/10/6
f 6/3/7 1/10/7 5/8/7
f 1/4/8 6/3/8 3/2/8
