# Blender v2.79 (sub 0) OBJ File: 'untitled.blend'
# www.blender.org
mtllib wiredia.mtl
o Cube.001
v 0.000000 -1.341114 0.000000
v 0.000000 -1.487314 0.000000
v 0.000000 1.341110 0.000000
v 0.000000 1.487310 0.000000
v 0.948313 0.000000 -0.948312
v 1.051688 0.000000 -1.051687
v 0.948312 0.000000 0.948313
v 1.051687 0.000000 1.051688
v -0.948313 0.000000 0.948312
v -1.051688 0.000000 1.051687
v -0.948312 0.000000 -0.948312
v -1.051688 0.000000 -1.051688
v 0.000000 1.294838 -0.084409
v 0.873387 0.059686 -0.957795
v -0.873387 0.059686 -0.957796
v 0.084409 -1.294842 0.000000
v 0.957796 -0.059686 -0.873387
v 0.957795 -0.059686 0.873388
v 0.873386 0.059686 0.957796
v -0.000000 1.294838 0.084409
v -0.873387 0.059686 0.957795
v -0.957796 0.059686 0.873387
v -0.084409 1.294838 -0.000000
v -0.957796 0.059686 -0.873387
v 0.084409 1.294838 0.000000
v 0.957795 0.059686 0.873388
v 0.957796 0.059686 -0.873386
v 0.873386 -0.059686 0.957796
v -0.873387 -0.059686 0.957795
v -0.000000 -1.294842 0.084409
v -0.957796 -0.059686 -0.873387
v -0.084409 -1.294842 -0.000000
v -0.957796 -0.059686 0.873387
v 0.000000 -1.294842 -0.084409
v -0.873387 -0.059686 -0.957796
v 0.873388 -0.059686 -0.957795
vt 0.500000 0.691403
vt 0.250033 0.547085
vt 0.250033 0.547085
vt 0.500000 0.691403
vt 0.500000 0.691403
vt 0.250033 0.547085
vt 0.500000 0.402766
vt 0.500000 0.402766
vt 0.500000 0.402766
vt 0.250033 0.258448
vt 0.250033 0.547085
vt 0.250033 0.258448
vt 0.250033 0.258448
vt 0.000066 0.402767
vt 0.000066 0.402767
vt 0.000066 0.402767
vt 0.999934 0.402767
vt 0.999934 0.691404
vt 0.999934 0.691404
vt 0.999934 0.402767
vt 0.999934 0.402767
vt 0.999934 0.691404
vt 0.749967 0.547085
vt 0.749967 0.547085
vt 0.749967 0.547085
vt 0.749967 0.547085
vt 0.500000 0.691403
vt 0.500000 0.402766
vt 0.000066 0.691404
vt 0.000066 0.402767
vt 0.000066 0.691404
vt 0.000066 0.691404
vt 0.250033 0.547085
vt 0.999934 0.402767
vt 0.749967 0.547085
vt 0.749967 0.258448
vt 0.749967 0.258448
vt 0.749967 0.258448
vt 0.500000 0.402766
vt 0.749967 0.258448
vt 0.749967 0.547085
vt 0.250033 0.258448
vt 0.500000 0.402766
vt 0.250033 0.547085
vn -0.6048 -0.6983 0.3828
vn -0.3285 0.3793 -0.8650
vn -0.0000 0.1569 0.9876
vn 0.0000 0.8439 -0.5365
vn 0.6048 -0.6983 0.3828
vn 0.3285 0.3793 -0.8650
vn -0.3828 0.6983 0.6048
vn 0.8650 -0.3793 0.3285
vn -0.9876 -0.1569 -0.0000
vn 0.5365 -0.8439 0.0000
vn -0.3828 0.6983 -0.6048
vn 0.8650 -0.3793 -0.3285
vn -0.6048 -0.6983 -0.3828
vn -0.3285 0.3793 0.8650
vn 0.6048 -0.6983 -0.3828
vn 0.3285 0.3793 0.8650
vn 0.0000 0.1569 -0.9876
vn -0.0000 0.8439 0.5365
vn 0.3828 -0.6983 -0.6048
vn -0.8650 0.3793 -0.3285
vn 0.3828 -0.6983 0.6048
vn -0.8650 0.3793 0.3285
vn 0.9876 0.1569 0.0000
vn -0.5365 0.8439 -0.0000
vn -0.3828 -0.6983 -0.6048
vn 0.8650 0.3793 -0.3285
vn -0.9876 0.1569 -0.0000
vn 0.5365 0.8439 0.0000
vn -0.3828 -0.6983 0.6048
vn 0.8650 0.3793 0.3285
vn 0.0000 -0.1569 -0.9876
vn -0.0000 -0.8439 0.5365
vn 0.6048 0.6983 -0.3828
vn 0.3285 -0.3793 0.8650
vn -0.6048 0.6983 -0.3828
vn -0.3285 -0.3793 0.8650
vn 0.3828 0.6983 0.6048
vn -0.8650 -0.3793 0.3285
vn 0.3828 0.6983 -0.6048
vn -0.8650 -0.3793 -0.3285
vn 0.9876 -0.1569 0.0000
vn -0.5365 -0.8439 -0.0000
vn 0.6048 0.6983 0.3828
vn 0.3285 -0.3793 -0.8650
vn -0.0000 -0.1569 0.9876
vn 0.0000 -0.8439 -0.5365
vn -0.6048 0.6983 0.3828
vn -0.3285 -0.3793 -0.8650
usemtl Material.001
s off
f 13/1/1 14/2/1 5/3/1 3/4/1
f 14/2/2 13/1/2 4/5/2 6/6/2
f 14/2/3 15/7/3 11/8/3 5/3/3
f 15/7/4 14/2/4 6/6/4 12/9/4
f 15/7/5 13/1/5 3/4/5 11/8/5
f 13/1/6 15/7/6 12/9/6 4/5/6
f 16/10/7 17/11/7 5/3/7 1/12/7
f 17/11/8 16/10/8 2/13/8 6/6/8
f 17/11/9 18/14/9 7/15/9 5/3/9
f 18/14/10 17/11/10 6/6/10 8/16/10
f 18/14/11 16/10/11 1/12/11 7/15/11
f 16/10/12 18/14/12 8/16/12 2/13/12
f 19/17/13 20/18/13 3/19/13 7/20/13
f 20/18/14 19/17/14 8/21/14 4/22/14
f 20/18/15 21/23/15 9/24/15 3/19/15
f 21/23/16 20/18/16 4/22/16 10/25/16
f 21/23/17 19/17/17 7/20/17 9/24/17
f 19/17/18 21/23/18 10/25/18 8/21/18
f 22/26/19 23/27/19 3/4/19 9/24/19
f 23/27/20 22/26/20 10/25/20 4/5/20
f 23/27/21 24/28/21 11/8/21 3/4/21
f 24/28/22 23/27/22 4/5/22 12/9/22
f 24/28/23 22/26/23 9/24/23 11/8/23
f 22/26/24 24/28/24 12/9/24 10/25/24
f 25/29/25 26/30/25 7/15/25 3/31/25
f 26/30/26 25/29/26 4/32/26 8/16/26
f 26/30/27 27/33/27 5/3/27 7/15/27
f 27/33/28 26/30/28 8/16/28 6/6/28
f 27/33/29 25/29/29 3/31/29 5/3/29
f 25/29/30 27/33/30 6/6/30 4/32/30
f 28/34/31 29/35/31 9/24/31 7/20/31
f 29/35/32 28/34/32 8/21/32 10/25/32
f 29/35/33 30/36/33 1/37/33 9/24/33
f 30/36/34 29/35/34 10/25/34 2/38/34
f 30/36/35 28/34/35 7/20/35 1/37/35
f 28/34/36 30/36/36 2/38/36 8/21/36
f 31/39/37 32/40/37 1/37/37 11/8/37
f 32/40/38 31/39/38 12/9/38 2/38/38
f 32/40/39 33/41/39 9/24/39 1/37/39
f 33/41/40 32/40/40 2/38/40 10/25/40
f 33/41/41 31/39/41 11/8/41 9/24/41
f 31/39/42 33/41/42 10/25/42 12/9/42
f 34/42/43 35/43/43 11/8/43 1/12/43
f 35/43/44 34/42/44 2/13/44 12/9/44
f 35/43/45 36/44/45 5/3/45 11/8/45
f 36/44/46 35/43/46 12/9/46 6/6/46
f 36/44/47 34/42/47 1/12/47 5/3/47
f 34/42/48 36/44/48 6/6/48 2/13/48
