# Blender v2.79 (sub 0) OBJ File: 'diamond.blend'
# www.blender.org
mtllib diamond.mtl
o Plane
v -0.500000 0.000000 0.500000
v 0.500000 0.000000 0.500000
v -0.500000 0.000000 -0.500000
v 0.500000 0.000000 -0.500000
v 0.000000 0.707100 0.000000
v 0.000000 -0.707100 0.000000
vt 0.666666 0.333334
vt 0.666666 0.666668
vt 0.333333 0.500001
vt 0.666666 0.833336
vt 1.000000 0.666668
vt 1.000000 1.000000
vt 0.333334 1.000000
vt 0.000000 0.833332
vt 0.333334 0.666668
vt 0.333333 0.333334
vt 0.333333 0.666668
vt 0.000000 0.500001
vt 0.000000 0.166667
vt 0.333333 0.000000
vt 0.333333 0.166667
vt 0.666666 0.000000
vt 0.666666 0.499998
vt 1.000000 0.333334
vt 0.999999 0.333334
vt 0.666666 0.166667
vt 0.999998 0.000000
vn -0.8165 -0.5774 0.0000
vn 0.0000 -0.5774 -0.8165
vn 0.8165 -0.5774 0.0000
vn 0.0000 -0.5774 0.8165
vn 0.0000 0.5774 0.8165
vn -0.8165 0.5774 0.0000
vn 0.0000 0.5774 -0.8165
vn 0.8165 0.5774 0.0000
usemtl None
s off
f 1/1/1 3/2/1 6/3/1
f 3/4/2 4/5/2 6/6/2
f 4/7/3 2/8/3 6/9/3
f 2/10/4 1/11/4 6/12/4
f 2/10/5 5/13/5 1/14/5
f 1/1/6 5/15/6 3/16/6
f 3/17/7 5/18/7 4/5/7
f 4/19/8 5/20/8 2/21/8
